<?xml version="1.0" standalone="no"?>
<!DOCTYPE svg PUBLIC "-//W3C//DTD SVG 20010904//EN"
 "http://www.w3.org/TR/2001/REC-SVG-20010904/DTD/svg10.dtd">
<svg version="1.0" xmlns="http://www.w3.org/2000/svg"
 width="908.000000pt" height="908.000000pt" viewBox="0 0 908.000000 908.000000"
 preserveAspectRatio="xMidYMid meet">
<metadata>
Created by potrace 1.11, written by Peter Selinger 2001-2013
</metadata>
<g transform="translate(0.000000,908.000000) scale(0.100000,-0.100000)"
fill="#000000" stroke="none">
<path d="M5159 8645 c-3 -2 -16 -6 -30 -8 -60 -11 -159 -67 -211 -119 -56 -56
-98 -105 -98 -113 0 -6 -68 -97 -94 -127 -8 -9 -23 -29 -32 -45 -10 -15 -24
-35 -31 -43 -13 -14 -75 -96 -118 -156 -11 -15 -26 -33 -33 -41 -7 -7 -10 -13
-5 -13 4 0 3 -4 -3 -8 -6 -4 -78 -97 -160 -207 -82 -110 -153 -204 -157 -210
-4 -5 -55 -73 -112 -150 -58 -77 -112 -148 -120 -158 -8 -9 -15 -19 -15 -21 0
-4 -214 -291 -244 -327 -7 -9 -33 -43 -56 -77 -24 -34 -48 -62 -52 -62 -4 0
-8 -5 -8 -10 0 -8 -167 -236 -210 -287 -5 -7 -10 -16 -10 -22 0 -5 -4 -11 -8
-13 -5 -1 -27 -28 -50 -58 -54 -71 -48 -63 -112 -150 -30 -41 -61 -80 -68 -85
-9 -7 -504 -11 -1554 -10 -1265 0 -1544 -2 -1555 -13 -11 -11 -13 -298 -13
-1600 0 -983 4 -1593 10 -1602 8 -13 98 -15 709 -16 l699 0 89 -64 c48 -35 89
-68 91 -72 2 -4 8 -8 13 -8 4 0 43 -26 86 -58 43 -31 95 -69 115 -82 21 -14
38 -28 38 -32 0 -5 5 -8 10 -8 6 0 32 -16 58 -36 87 -66 475 -346 496 -357 12
-7 23 -15 26 -18 10 -14 130 -99 139 -99 5 0 11 -4 13 -8 2 -5 59 -49 128 -98
69 -49 130 -92 135 -97 6 -4 51 -37 100 -73 50 -35 98 -71 108 -79 9 -8 21
-15 26 -15 5 0 11 -3 13 -7 2 -5 26 -24 53 -42 28 -19 52 -37 55 -40 3 -4 28
-22 55 -41 28 -19 52 -38 53 -42 2 -4 8 -8 14 -8 5 0 29 -16 52 -35 24 -19 48
-35 55 -35 6 0 11 -3 11 -7 0 -5 17 -19 38 -33 20 -14 42 -29 49 -35 7 -5 18
-15 25 -21 7 -5 21 -13 31 -17 9 -3 17 -11 17 -17 0 -5 5 -10 11 -10 6 0 24
-10 39 -22 15 -13 38 -31 51 -40 13 -9 73 -52 132 -95 60 -43 116 -82 125 -88
16 -10 45 -33 66 -50 7 -5 19 -14 28 -20 8 -5 42 -29 74 -52 33 -23 86 -61
119 -84 33 -23 62 -45 65 -48 3 -4 31 -24 62 -45 32 -21 66 -47 77 -57 11 -11
23 -19 26 -19 3 0 11 -5 18 -10 7 -6 53 -40 102 -75 50 -35 95 -69 102 -75 7
-5 17 -10 23 -10 5 0 10 -3 10 -8 0 -10 73 -41 135 -57 65 -17 186 -12 250 10
69 24 174 97 209 145 17 22 33 40 38 40 4 0 8 5 8 10 0 6 18 34 40 63 90 117
233 309 251 337 9 14 26 35 38 47 11 12 21 25 21 27 0 6 24 37 48 61 6 8 12
17 12 20 0 4 10 19 23 34 24 30 24 30 162 216 53 72 102 137 109 145 6 8 50
67 96 130 47 63 89 120 95 126 5 7 19 24 30 40 11 15 30 40 43 55 12 15 22 31
22 37 0 6 4 12 8 14 5 2 38 44 75 93 36 50 75 101 86 115 10 14 64 86 119 160
55 74 107 144 116 155 9 11 36 47 60 80 62 83 98 131 116 154 8 11 123 164
255 342 132 177 246 328 253 335 6 7 12 15 12 18 0 4 69 98 156 211 8 11 42
56 75 100 33 44 66 88 74 98 8 9 15 22 15 27 0 6 3 10 8 10 4 1 23 24 42 51
19 28 47 65 62 82 15 18 28 35 28 39 0 4 6 13 13 20 20 22 107 138 107 143 0
5 25 37 48 60 6 8 12 18 12 23 0 6 4 12 8 14 5 2 62 75 128 163 65 88 122 165
127 170 4 6 47 64 97 130 49 66 93 125 98 131 5 6 27 35 48 65 21 30 43 59 49
66 16 20 28 35 65 86 19 27 54 72 78 102 23 29 42 56 42 60 0 3 5 11 10 18 42
49 56 67 83 107 17 25 38 52 46 60 8 8 30 48 50 90 34 70 36 82 36 170 0 76
-5 109 -24 163 -14 37 -28 67 -33 67 -4 0 -8 6 -8 13 0 26 -100 116 -249 223
-84 60 -165 118 -181 129 -15 11 -56 40 -90 65 -35 25 -84 60 -109 78 -25 18
-57 41 -71 50 -28 19 -56 41 -75 60 -8 6 -16 12 -20 12 -5 0 -111 76 -150 108
-5 4 -32 23 -60 42 -54 37 -54 37 -101 75 -18 14 -36 25 -42 25 -6 0 -12 4
-14 8 -2 7 -137 106 -322 237 -178 126 -402 290 -404 297 -2 4 -8 8 -12 8 -8
0 -122 81 -232 164 -25 20 -51 36 -57 36 -6 0 -11 3 -11 8 0 4 -17 18 -38 32
-44 30 -255 182 -262 190 -3 3 -17 11 -32 19 -16 8 -28 18 -28 23 0 4 -7 8
-15 8 -8 0 -15 4 -15 10 0 5 -20 21 -45 36 -25 14 -45 29 -45 33 0 3 -9 11
-19 16 -25 13 -182 124 -199 142 -7 7 -17 13 -22 13 -5 0 -18 10 -30 22 -11
12 -20 19 -20 15 0 -4 -9 1 -20 11 -11 9 -29 25 -40 35 -11 9 -20 14 -20 10 0
-5 -4 -3 -8 3 -4 5 -29 26 -57 45 -27 18 -52 36 -55 39 -10 11 -189 139 -208
149 -11 6 -26 17 -34 24 -7 7 -29 24 -48 37 -19 13 -37 27 -40 30 -9 11 -141
74 -164 77 -35 6 -183 12 -187 8z"/>
</g>
</svg>
