<svg xmlns="http://www.w3.org/2000/svg" viewBox="0 0 1688.04 1601.03"><defs><style>.cls-1{fill:#ff5a29;}.cls-2{fill:#008dbe;}.cls-3{fill:#ffb521;}.cls-4{fill:#fff;}</style></defs><title>Asset 4</title><g id="Layer_2" data-name="Layer 2"><g id="Layer_7" data-name="Layer 7"><path class="cls-1" d="M1539,692.05c-77.7-32.31-199.61-30.16-330.73-27-131.06,3.38-271.35,7.83-384.37-15.66C709.24,628,621.89,578.6,559.31,521.75h0C495.49,465.05,453.94,409.28,407,386.9c-45.62-23.83-96.66-14.27-148,26.09C154.19,494.23,62.46,690.85,64.72,892.31c-1,205.15,83.43,386.4,216.91,499.84,133.78,116.21,316.63,164.61,519.1,168.19,203.76.5,397.79-56.89,553.06-172.51a797.49,797.49,0,0,0,201.52-223.9c53.63-88.64,92.1-191.25,96.07-283.74C1653.63,787.73,1618.4,722.66,1539,692.05Z"/><path class="cls-2" d="M324.41,875.9c92.27-5.31,188.77,23.24,261.13,67.41,36.22,23.7,66.82,55.45,85.46,95.42,18.29,39.06,24.61,86.36,4.29,120.07-15.69,42.54-67.16,43.2-119.5,44.58-53.2.26-107.28,1.23-148.22,18.72-41.83,16.37-70.49,49.24-92.85,87.72-23.22,37.35-40.14,80.27-78.45,91-68.36,28.2-129.68,18.78-165.75-7.63C35.79,1368.74,0,1288.84,0,1200.86.72,1114,32.52,1029.1,90.81,972c57.67-58.37,141.86-89,233.59-96.07h0ZM1389.77,301.38c63.56,4.23,112.78,49.92,105.55,121.51-1.68,36.45-11.66,70.9-33,99.26-22.34,28-56,50-128.91,53.72-68.75,6.09-171.28-25-194.71-66.44-30.88-40.88,17.35-92,78.06-113.72,61.9-23,86.43-40.39,106.31-59.67,19.45-17.93,34.23-37.79,66.68-34.66Z"/><path class="cls-3" d="M890.72,1432.76c50.5-2.08,102-42.77,145.07-57.32,42.68-17.06,76.9-8,84.49,31.64,6.09,37.43-12.88,90-51.56,128-37.87,38.94-95.44,63.38-147.63,66-52.62-.8-80.68-1.27-129.37-13.76-43.55-12.94-107.74-37.9-113.39-98.11-5.9-59.54,45.63-90.34,85.27-85.57,43.82,1.13,75.76,37.84,127.13,29.17h0Zm711.4-773.13c29.78,12.22,50.26,25.61,65,44.57,13.19,18.77,25.11,37.37,19.47,63-6.06,25.66-33.92,40.21-51.85,27.77-17.26-9.13-31.87-24.12-65.51-30.55-29.88-8.63-52.94-7.29-79.9-6.74-25.17,2.58-42.9-13.53-37.45-37.7,7.26-31.51,20.63-44.67,49.12-58.32,26.8-14,68.41-14.31,101.11-2ZM134.89,531.12c53.55.26,96.55,30.23,96.78,68.79,4.54,49.28-61.6,23.43-108.72,39.14-42.39,27.47-83.49,2.2-84.84-39.14C38.11,561.89,81.44,531.12,134.89,531.12Z"/><path class="cls-4" d="M1220.08,142.88A73.68,73.68,0,0,0,1270.59,122a53.47,53.47,0,0,0,14.77-23,53.83,53.83,0,0,0,6.15-27.52c-.82-18.48-6.89-37.64-20.92-50.52S1239.43,0,1220.08,0a73.74,73.74,0,0,0-50.52,20.92,53.63,53.63,0,0,0-14.77,23,53.87,53.87,0,0,0-6.15,27.53c.83,18.47,6.89,37.63,20.92,50.51s31.16,20.93,50.52,20.93Z"/><path class="cls-4" d="M1350.28,123.81,1336.19,138a53.65,53.65,0,0,0-14.78,23,53.85,53.85,0,0,0-6.15,27.52,53.87,53.87,0,0,0,6.15,27.53,53.65,53.65,0,0,0,14.78,23l14.45,11.17A71.15,71.15,0,0,0,1386.7,260l19-2.55a71.34,71.34,0,0,0,31.52-18.37l14.09-14.21a53.47,53.47,0,0,0,14.77-23,53.74,53.74,0,0,0,6.16-27.52,53.77,53.77,0,0,0-6.16-27.53,53.53,53.53,0,0,0-14.77-23l-14.45-11.17a71.17,71.17,0,0,0-36.06-9.75l-19,2.55a71.44,71.44,0,0,0-31.52,18.37Z"/><path class="cls-4" d="M148.27,1140.4a73.7,73.7,0,0,0,50.51-20.92,53.57,53.57,0,0,0,14.77-23,53.71,53.71,0,0,0,6.16-27.52c-.83-18.47-6.9-37.64-20.93-50.51s-31.16-20.93-50.51-20.93a73.7,73.7,0,0,0-50.52,20.93,53.57,53.57,0,0,0-14.77,23A53.83,53.83,0,0,0,76.83,1069c.83,18.48,6.9,37.64,20.92,50.52s31.16,20.92,50.52,20.92Z"/><path class="cls-4" d="M300.37,1402.16a73.74,73.74,0,0,0,50.52-20.92,53.63,53.63,0,0,0,14.77-23,53.87,53.87,0,0,0,6.15-27.53c-.83-18.47-6.9-37.63-20.92-50.51s-31.16-20.92-50.52-20.92a73.67,73.67,0,0,0-50.51,20.92,53.47,53.47,0,0,0-14.77,23,53.73,53.73,0,0,0-6.15,27.52c.82,18.48,6.89,37.64,20.92,50.52s31.16,20.92,50.51,20.92Z"/><path class="cls-4" d="M1315.58,425.34c9.35,0,18.3-8.21,17.86-17.86s-7.84-17.86-17.86-17.86c-9.34,0-18.29,8.22-17.86,17.86s7.85,17.86,17.86,17.86Z"/><path class="cls-4" d="M1198,292.55l-3.59,7a18.92,18.92,0,0,0-1.8,13.77c1.14,4.14,4.34,8.63,8.2,10.67,4.15,2.19,9.17,3.29,13.77,1.8,4.28-1.39,8.56-4.07,10.67-8.21l3.59-7.05a18.94,18.94,0,0,0,1.8-13.76c-1.14-4.14-4.34-8.63-8.21-10.67-4.14-2.19-9.16-3.29-13.76-1.8-4.28,1.39-8.56,4.07-10.67,8.21Z"/><path class="cls-4" d="M1452.36,326.21a3.58,3.58,0,0,1,0,.65l.64-4.75a5,5,0,0,1-.25.86l1.8-4.27a3,3,0,0,1-.29.49l2.79-3.61a4.78,4.78,0,0,1-.81.81l3.62-2.8a7.37,7.37,0,0,1-.77.45l4.26-1.8a7.05,7.05,0,0,1-1.49.43l4.75-.64a7.79,7.79,0,0,1-1.93,0l4.75.64a7.89,7.89,0,0,1-1.52-.39l4.27,1.8a6.21,6.21,0,0,1-1-.59l3.61,2.79a5,5,0,0,1-.62-.6l2.79,3.62a4.88,4.88,0,0,1-.44-.73l1.8,4.26a4.2,4.2,0,0,1-.23-.86l.64,4.75a4.75,4.75,0,0,1,0-.65,18.27,18.27,0,0,0-5.23-12.63c-3.09-3.1-8.18-5.43-12.63-5.23-9.82.44-17.66,7.84-17.85,17.86-.24,12.45,10.6,21.59,22.53,21.74,12.11.15,22.55-9.32,22.62-21.62a18.38,18.38,0,0,0-5.23-12.63c-3.1-3.1-8.18-5.43-12.63-5.23-4.62.2-9.41,1.72-12.63,5.23a18.63,18.63,0,0,0-5.23,12.63Z"/><path class="cls-4" d="M35.07,1192.72h.66a13.45,13.45,0,0,0,6.88-1.53,13.46,13.46,0,0,0,5.75-3.7,13.35,13.35,0,0,0,3.69-5.74,13.5,13.5,0,0,0,1.54-6.89l-.64-4.74a17.81,17.81,0,0,0-4.59-7.88l-3.62-2.8a17.8,17.8,0,0,0-9-2.43h-.66a13.45,13.45,0,0,0-6.88,1.53,13.31,13.31,0,0,0-5.75,3.7,13.35,13.35,0,0,0-3.69,5.74,13.48,13.48,0,0,0-1.54,6.88l.64,4.75a17.81,17.81,0,0,0,4.59,7.88l3.62,2.8a17.8,17.8,0,0,0,9,2.43Z"/><path class="cls-4" d="M95.69,1318.24c15.57,0,30.49-13.69,29.77-29.77s-13.08-29.76-29.77-29.76c-15.57,0-30.48,13.69-29.76,29.76s13.08,29.77,29.76,29.77Z"/></g></g></svg>