<svg xmlns="http://www.w3.org/2000/svg" viewBox="0 0 1586.8 1186.32"><defs><style>.cls-1{fill:#ff5a29;}</style></defs><title>Asset 5</title><g id="Layer_2" data-name="Layer 2"><g id="Layer_7" data-name="Layer 7"><path class="cls-1" d="M1474.29,318c-77.7-32.3-199.61-30.16-330.72-27-131.07,3.38-271.36,7.83-384.37-15.65-114.63-21.44-202-70.81-264.57-127.66h0C430.81,91,389.26,35.25,342.27,12.88,296.65-11,245.61-1.39,194.31,39,89.51,120.2-2.22,316.82,0,518.29c-1,205.15,83.43,386.4,216.91,499.83,133.78,116.22,316.63,164.61,519.11,168.19,203.75.5,397.78-56.88,553.05-172.51a797.36,797.36,0,0,0,201.52-223.9c53.63-88.63,92.1-191.25,96.07-283.74C1589,413.7,1553.73,348.64,1474.29,318Z"/></g></g></svg>