<svg id="Layer_1" data-name="Layer 1" xmlns="http://www.w3.org/2000/svg" viewBox="0 0 1641.18 1272.53"><defs><style>.cls-1{fill:#ea4d28;}.cls-2{fill:#ff5a29;}</style></defs><title>Asset_5</title><g id="Layer_2" data-name="Layer 2"><g id="Layer_7" data-name="Layer 7"><path class="cls-1" d="M1524.84,341.12c-80.36-34.64-206.45-32.35-342-29-135.56,3.63-280.65,8.4-397.54-16.78-118.55-23-208.92-76-273.63-136.94h0c-66-60.81-109-120.61-157.58-144.61-47.19-25.61-100-15.3-153,28C92.62,129-2.26,339.86,0,556-1,776,86.33,970.45,224.38,1092.12c138.37,124.66,327.48,176.57,536.9,180.41,210.73.54,411.41-61,572-185A845.37,845.37,0,0,0,1541.7,847.31c55.47-95.07,95.26-205.14,99.36-304.35C1643.48,443.78,1607,374,1524.84,341.12Z"/></g></g><g id="Layer_2-2" data-name="Layer 2"><g id="Layer_7-2" data-name="Layer 7"><path class="cls-2" d="M1474.33,404.22c-77.7-32.3-199.61-30.16-330.72-27-131.07,3.38-271.36,7.83-384.37-15.65-114.63-21.44-202-70.81-264.57-127.66h0C430.85,177.22,389.3,121.47,342.31,99.1c-45.62-23.88-96.66-14.27-148,26.12C89.55,206.42-2.18,403,0,604.51-1,809.66,83.47,990.91,217,1104.34,350.73,1220.56,533.58,1269,736.06,1272.53c203.75.5,397.78-56.88,553.05-172.51a797.36,797.36,0,0,0,201.52-223.9c53.63-88.63,92.1-191.25,96.07-283.74C1589,499.92,1553.77,434.86,1474.33,404.22Z"/></g></g></svg>